<svg preserveAspectRatio="none" overflow="visible" style="display: block;" width="32" height="20" viewBox="0 0 32 20" fill="none" xmlns="http://www.w3.org/2000/svg">
<g id="Group 4">
<path id="path147" d="M12.9348 10.105C12.9348 10.3108 12.9463 10.5166 12.9671 10.7214C10.7595 11.4979 9.19248 13.6029 9.16431 16H5.06415C3.71308 16 2.44131 15.4761 1.48356 14.5229C0.526857 13.5686 0 12.3004 0 10.9532C0 8.71414 1.50755 6.75156 3.60771 6.11954C3.56911 5.86175 3.54929 5.60187 3.54929 5.342C3.54929 2.39709 5.95513 8.20364e-09 8.91184 8.20364e-09C10.7981 8.20364e-09 12.5446 0.998956 13.5065 2.58939C13.807 2.5291 14.1127 2.49792 14.4205 2.49792C15.831 2.49792 17.1382 3.13409 18 4.20062C15.1341 4.64864 12.9348 7.12577 12.9348 10.105Z" fill="white"/>
<path id="path148" d="M28.0401 11.9325H27.6865C27.6973 11.8111 27.7032 11.6886 27.7032 11.5652C27.7032 9.35439 25.9439 7.56205 23.7739 7.56205C23.3296 7.56205 22.9031 7.63832 22.5052 7.77681C21.7624 6.13802 20.1361 5 18.2488 5C15.6601 5 13.5619 7.13755 13.5619 9.77487C13.5619 10.2365 13.6269 10.6831 13.7481 11.1056C11.6273 11.4217 10 13.2823 10 15.5292C10 17.9989 11.9652 20 14.3884 20H16.0718H22.7642H28.0401C30.2269 20 32 18.1946 32 15.9667C32 13.7379 30.2269 11.9325 28.0401 11.9325Z" fill="white"/>
</g>
</svg>
