<svg width="111" height="82" viewBox="0 0 111 82" fill="none" xmlns="http://www.w3.org/2000/svg">
<path d="M97.6594 33.1862C100.375 34.3813 100.928 37.9853 98.6874 39.8885L76.6092 58.6438C74.2248 60.6693 70.5106 59.2656 70.034 56.1587L65.3508 25.6265C64.8743 22.5197 68.0078 20.1375 70.8979 21.4094L97.6594 33.1862Z" fill="#6EE2AF"/>
<path d="M80.968 34.7597C83.6835 35.9547 84.2363 39.5588 81.996 41.462L59.9178 60.2173C57.5334 62.2428 53.8192 60.839 53.3426 57.7322L48.6594 27.2C48.1829 24.0932 51.3164 21.711 54.2065 22.9829L80.968 34.7597Z" fill="#35B77E"/>
<path d="M63.9914 36.3332C66.707 37.5282 67.2598 41.1323 65.0195 43.0355L42.9412 61.7908C40.5568 63.8163 36.8426 62.4125 36.3661 59.3057L31.6829 28.7735C31.2063 25.6667 34.3398 23.2845 37.23 24.5563L63.9914 36.3332Z" fill="#21825D"/>
<path d="M48.8528 36.6213C51.5683 37.8163 52.1211 41.4204 49.8808 43.3235L27.8025 62.0789C25.4181 64.1044 21.7039 62.7006 21.2274 59.5938L16.5442 29.0616C16.0676 25.9548 19.2011 23.5726 22.0913 24.8444L48.8528 36.6213Z" fill="#32654F"/>
</svg>
